inDegrees=yes
name=ik_S55_A13_T02
DataType=double
version=3
OpenSimVersion=4.3-2021-08-27-4bc7ad9
endheader
time	pelvis_tilt	pelvis_list	pelvis_rotation	pelvis_tx	pelvis_ty	pelvis_tz	hip_flexion_r	hip_adduction_r	hip_rotation_r	knee_angle_r	knee_angle_r_beta	ankle_angle_r	subtalar_angle_r	mtp_angle_r	hip_flexion_l	hip_adduction_l	hip_rotation_l	knee_angle_l	knee_angle_l_beta	ankle_angle_l	subtalar_angle_l	mtp_angle_l	lumbar_extension	lumbar_bending	lumbar_rotation	arm_flex_r	arm_add_r	arm_rot_r	elbow_flex_r	pro_sup_r	wrist_flex_r	wrist_dev_r	arm_flex_l	arm_add_l	arm_rot_l	elbow_flex_l	pro_sup_l	wrist_flex_l	wrist_dev_l
6.299999999999954	3.232564549865784	1.490900261271216	20.84490299702615	0	0.9399999999999999	0	29.53046977945299	-9.220907174490783	-8.399896391003143	34.7612947299399	0.6066990452936043	0	0	0	29.53046977945299	-9.220907174490783	-8.399896391003143	34.7612947299399	0.6066990452936043	0	0	0	3.89616675516159	1.038478096499235	4.24911829565032	39.80245208384228	-6.571596371272055	40.6985193298379	20.04252594486137	162.3503269854901	0	0	66.17699368803788	-18.43038855667477	13.97091173406472	30.27190851093343	160.570766832377	0	0
6.319999999999953	3.220020948669007	1.492381021603912	20.774002928847	0	0.9399999999999999	0	29.53757193111669	-9.222103080272076	-8.401473592550667	34.76789176693683	0.6068141853100767	0	0	0	29.53757193111669	-9.222103080272076	-8.401473592550667	34.76789176693683	0.6068141853100767	0	0	0	3.880060112587861	1.059382610927084	4.44226075098062	41.13601282258691	-6.741345629066894	39.82063321580545	21.36060954678443	162.0994611886165	0	0	66.05564426477785	-18.03961125360623	14.12933131717143	30.54630121756013	162.1001197884102	0	0
6.339999999999953	3.210500514182749	1.508498117780374	20.63737951990775	0	0.9399999999999999	0	29.5454327829027	-9.223423732958318	-8.403217062522057	34.7752023510796	0.606941779073612	0	0	0	29.5454327829027	-9.223423732958318	-8.403217062522057	34.7752023510796	0.606941779073612	0	0	0	3.871078710162831	1.092775946664212	4.637585625165764	41.41057377815756	-7.01359849344434	39.71417456173664	23.56678322988777	160.4766455436528	0	0	65.11202716390343	-17.66624750375371	14.78285663748417	31.59816096574396	161.6440435635664	0	0
6.359999999999952	3.218466821882993	1.494452862442593	20.57039854175636	0	0.9399999999999999	0	29.55231099400584	-9.224578112822693	-8.40474183950297	34.7816000282351	0.6070534396044552	0	0	0	29.55231099400584	-9.224578112822693	-8.40474183950297	34.7816000282351	0.6070534396044552	0	0	0	3.868401018369347	1.09051414868314	4.834931768544896	43.52731194353293	-6.767252098579593	38.82791072507165	24.37202171754809	159.1647335935406	0	0	64.99850806518508	-17.3023589553105	14.97246353116581	32.04463627129393	160.1517162583237	0	0
6.379999999999952	3.251249898912676	1.474432253906488	20.28930908301111	0	0.9399999999999999	0	29.55884638949015	-9.225673020262198	-8.406189253322756	34.78768321215834	0.6071596111929202	0	0	0	29.55884638949015	-9.225673020262198	-8.406189253322756	34.78768321215834	0.6071596111929202	0	0	0	3.881512859252706	1.084927349545138	5.149053003249894	43.74433736611996	-6.956636106530124	38.63327858524759	26.86895458445198	158.0172069832968	0	0	63.25852732139413	-16.80097707768312	16.87397369956478	33.9019617543523	157.2916758324978	0	0
6.399999999999952	3.23411369540307	1.444153798072081	20.14137371471768	0	0.9399999999999999	0	29.56680379433801	-9.226996899981007	-8.407944073794686	34.79513115152628	0.6072896022573795	0	0	0	29.56680379433801	-9.226996899981007	-8.407944073794686	34.79513115152628	0.6072896022573795	0	0	0	3.851392225641168	1.073050885067011	5.308624079834129	44.06478569945179	-7.13296274746759	38.45324144080033	29.45395649965162	157.5449430714274	0	0	63.18553450196663	-16.58748238830315	17.07311912045807	34.88150566260907	156.2582805361636	0	0
6.419999999999951	3.218145702769871	1.432715048585278	20.15954137298954	0	0.9399999999999999	0	29.57885303831895	-9.229002606841441	-8.41060397604849	34.80636600742248	0.6074856874837554	0	0	0	29.57885303831895	-9.229002606841441	-8.41060397604849	34.80636600742248	0.6074856874837554	0	0	0	3.830506119578315	1.073669704723465	5.39391734571051	44.36022867457011	-7.407518053587548	38.1797073331295	31.97688134768899	156.9940534171079	0	0	61.34971903215056	-16.78217260208267	17.64402882751295	37.12296305357717	155.5192798376206	0	0
6.439999999999951	3.221068653972498	1.433263801550996	20.06705579106668	0	0.9399999999999999	0	29.59275508550412	-9.231277133996542	-8.413642024331754	34.81947541336081	0.6077144897803597	0	0	0	29.59275508550412	-9.231277133996542	-8.413642024331754	34.81947541336081	0.6077144897803597	0	0	0	3.829203892636801	1.083432946597856	5.529827874439377	44.58139358138803	-7.612370118082496	37.91865744954248	34.58209813905405	156.1475550677551	0	0	60.27855512280678	-16.68381925813638	17.42538559646249	39.06465347882197	155.2763281553665	0	0
6.45999999999995	3.210152967986815	1.419393436967102	19.84213882778305	0	0.9399999999999999	0	29.60641051631366	-9.233523231295106	-8.416636082108266	34.83229503556568	0.6079382343966965	0	0	0	29.60641051631366	-9.233523231295106	-8.416636082108266	34.83229503556568	0.6079382343966965	0	0	0	3.806748935796775	1.0864309121369	5.696966676746094	44.82840853882168	-7.727164345440663	37.70430999711709	37.07692579951066	155.6413402994445	0	0	59.34450157817516	-16.68350806410819	17.28306962156737	40.89044341723068	152.9308981349799	0	0
6.47999999999995	3.223069119615583	1.409569464167017	19.71158310581148	0	0.9399999999999999	0	29.62482741570091	-9.236552765683399	-8.420676104254314	34.84954651760661	0.6082393295591594	0	0	0	29.62482741570091	-9.236552765683399	-8.420676104254314	34.84954651760661	0.6082393295591594	0	0	0	3.817380711755919	1.078486035620259	5.787537696426504	45.0099861980822	-7.836873800560197	37.42928484808044	39.50522972965143	155.3934992763166	0	0	58.30452282827121	-16.84772027663486	17.10277469805399	43.12322661737487	148.051706405762	0	0
6.499999999999949	3.211066687808967	1.424468445090878	19.71970363013181	0	0.9399999999999999	0	29.63780737681353	-9.23866828863374	-8.423507981814021	34.86178047755401	0.6084528524407987	0	0	0	29.63780737681353	-9.23866828863374	-8.423507981814021	34.86178047755401	0.6084528524407987	0	0	0	3.810882672170866	1.095793190758551	5.770535150589916	45.17523865770736	-7.98667159367726	37.19871658039663	41.91734989386121	155.1192967507755	0	0	57.22787541909118	-16.94266304265224	16.72455657116215	45.28710653358463	145.3772269841635	0	0
6.519999999999949	3.190417708696517	1.418413519384935	19.58111428895984	0	0.9399999999999999	0	29.65043998433482	-9.24074122063181	-8.426276235188313	34.87360973254562	0.6086593118884602	0	0	0	29.65043998433482	-9.24074122063181	-8.426276235188313	34.87360973254562	0.6086593118884602	0	0	0	3.783304638269448	1.117487823698658	6.03356494526909	45.36541504418879	-8.194289445029993	36.84639706697371	44.21073311179558	154.7109527535389	0	0	55.68556606511475	-16.5670016940556	16.64356012920016	48.13062209883195	144.5510858533191	0	0
6.539999999999949	3.209779951109423	1.411569023117448	19.10518723352578	0	0.9399999999999999	0	29.82616491756232	-9.261173435556586	-8.457596842252698	35.08182795987054	0.6122934055179461	0	0	0	29.82616491756232	-9.261173435556586	-8.457596842252698	35.08182795987054	0.6122934055179461	0	0	0	3.808278369541176	1.117897311297347	6.540635291835235	53.66190929837087	-6.722434308235549	31.0774215258286	40.2159999041253	156.1131914488832	0	0	55.65421691333596	-16.5986396464706	16.71606794695095	48.15121687855847	144.4686250519777	0	0
